<?xml version="1.0" encoding="iso-8859-1"?>
<!-- Generator: Adobe Illustrator 16.0.0, SVG Export Plug-In . SVG Version: 6.00 Build 0)  -->
<!DOCTYPE svg PUBLIC "-//W3C//DTD SVG 1.1//EN" "http://www.w3.org/Graphics/SVG/1.1/DTD/svg11.dtd">
<svg version="1.1" id="Capa_1" xmlns="http://www.w3.org/2000/svg" xmlns:xlink="http://www.w3.org/1999/xlink" x="0px" y="0px"
	 width="478.513px" height="478.513px" fill="#ffffff" viewBox="0 0 478.513 478.513" style="enable-background:new 0 0 478.513 478.513;"
	 xml:space="preserve">
<g>
	<g>
		<path d="M60.082,262.364c9.58,19.436,24.598,29.587,39.451,34.769c-6.831,14.166-10.285,31.971-3.316,52.484
			c18.097,53.251-27.74,57.223-27.74,57.223s65.117,13.101,114.458-23.92c5.566,13.532,15.501,26.785,33.216,35.51
			c50.446,24.869,20.84,60.083,20.84,60.083s52.019-34.552,63.135-92.312c48.698,32.981,109.908,20.623,109.908,20.623
			s-45.833-3.972-27.739-57.215c6.348-18.698,4.003-35.104-1.623-48.598c61.053-8.708,97.837-64.025,97.837-64.025
			s-35.221,29.605-60.075-20.844c-9.582-19.437-24.602-29.577-39.449-34.769c6.821-14.17,10.279-31.967,3.311-52.479
			c-18.094-53.247,27.739-57.222,27.739-57.222s-65.121-13.103-114.46,23.91c-5.566-13.523-15.501-26.782-33.21-35.506
			C211.919,35.215,241.521,0,241.521,0s-52.016,34.556-63.133,92.311c-48.696-32.977-109.912-20.63-109.912-20.63
			s45.837,3.973,27.74,57.222c-6.348,18.701-4.002,35.099,1.625,48.592c-61.06,8.718-97.837,64.031-97.837,64.031
			S35.22,211.92,60.082,262.364z M123.122,211.811c0.613-2.591,1.207-5.19,1.986-7.717l0,0c4.631,0,9.019-2.749,10.913-7.301
			c1.889-4.546,0.713-9.53-2.553-12.796c0.974-1.859,2.043-3.648,3.109-5.448c3.212-5.408,6.727-10.606,10.724-15.421
			c1.447,0.605,2.983,0.928,4.496,0.928c2.996,0,6.053-1.176,8.33-3.534c3.497-3.427,4.294-8.51,2.531-12.794
			c4.953-4.152,10.299-7.836,15.896-11.155c1.649-0.982,3.282-1.978,4.977-2.883c2.2,2.154,5.102,3.442,8.149,3.442
			c1.571,0.076,3.069-0.238,4.552-0.865c4.584-1.91,7.303-6.338,7.261-10.969c1.986-0.627,4.043-1.076,6.067-1.593
			c5.991-1.539,12.112-2.723,18.418-3.312c1.775,4.292,6.007,7.301,10.882,7.243c4.917,0,9.121-3.003,10.884-7.281
			c6.576,0.571,12.964,1.751,19.195,3.356c1.796,0.465,3.619,0.84,5.366,1.385c0,4.623,2.761,9.026,7.329,10.864
			c1.427,0.619,2.922,0.934,4.416,0.934c3.15,0,6.104-1.327,8.296-3.519c2.613,1.369,5.138,2.867,7.618,4.416
			c4.648,2.879,9.148,5.965,13.341,9.434c-1.779,4.286-0.89,9.379,2.608,12.822c2.276,2.276,5.258,3.455,8.239,3.455
			c1.563,0,3.106-0.323,4.545-0.936c3.683,4.388,6.993,9.089,10.015,13.98c1.378,2.216,2.753,4.424,3.987,6.73
			c-3.267,3.29-4.4,8.325-2.44,12.888c1.871,4.477,6.195,7.222,10.828,7.222c0.027,0,0.06-0.008,0.092-0.008
			c0.874,2.757,1.547,5.6,2.22,8.441c1.243,5.236,2.208,10.576,2.729,16.054c-4.292,1.789-7.313,5.991-7.313,10.928
			c0,0.232,0,0.395,0.084,0.627c0.056,4.863,3.029,8.994,7.262,10.742c-0.505,5.642-1.487,11.145-2.762,16.542
			c-0.629,2.669-1.242,5.366-2.052,7.975c-4.664-0.016-9.076,2.714-10.924,7.298c-1.896,4.5-0.762,9.521,2.505,12.804
			c-0.934,1.779-1.964,3.479-2.974,5.189c-3.267,5.49-6.853,10.756-10.925,15.633c-4.279-1.779-9.361-0.93-12.795,2.562
			c-3.495,3.434-4.341,8.508-2.562,12.791c-4.9,4.088-10.19,7.707-15.701,10.988c-1.687,0.994-3.365,2.024-5.105,2.941
			c-3.266-3.25-8.263-4.436-12.819-2.544c-4.585,1.903-7.306,6.331-7.266,10.964c-1.903,0.598-3.879,1.006-5.826,1.503
			c-6.071,1.562-12.283,2.745-18.691,3.334c-1.795-4.3-5.986-7.321-10.928-7.321c-4.873,0-9.059,3.058-10.81,7.338
			c-6.49-0.586-12.804-1.756-18.959-3.351c-1.875-0.478-3.791-0.874-5.634-1.442c0-4.629-2.711-9.045-7.223-10.949
			c-4.553-1.823-9.586-0.688-12.836,2.577c-2.511-1.318-4.929-2.772-7.322-4.275c-4.71-2.914-9.273-6.067-13.521-9.599
			c1.753-4.287,0.91-9.369-2.591-12.803c-3.438-3.499-8.518-4.332-12.793-2.562c-3.619-4.332-6.863-8.969-9.844-13.793
			c-1.423-2.284-2.829-4.577-4.09-6.961c3.222-3.282,4.362-8.315,2.479-12.872c-1.901-4.509-6.306-7.222-10.912-7.189
			c-0.848-2.701-1.491-5.466-2.142-8.235c-1.259-5.325-2.232-10.748-2.741-16.314c4.304-1.747,7.325-5.946,7.325-10.892
			c-0.054-4.923-3.08-9.113-7.35-10.88C120.868,222.881,121.834,217.292,123.122,211.811z"/>
		<path d="M227.251,169.159c0.547,0,1.096-0.078,1.647-0.158c6.436-0.944,10.91-6.907,9.979-13.343
			c-0.629-4.264-3.473-7.618-7.175-9.161c-1.894-0.787-3.998-1.132-6.171-0.81c-0.99,0.143-1.918,0.445-2.803,0.81
			c-4.867,2.016-7.969,7.087-7.175,12.533C216.415,164.919,221.433,169.159,227.251,169.159z"/>
		<path d="M310.233,238.949c0,0.238,0,0.473,0.076,0.705c0.152,6.284,5.334,11.389,11.697,11.389c4.264,0,7.951-2.269,10.015-5.65
			c1.103-1.787,1.764-3.867,1.764-6.129c0-0.076,0-0.076,0-0.156c0-0.082,0-0.158,0-0.234c0-2.246-0.678-4.312-1.764-6.095
			c-2.088-3.396-5.799-5.681-10.015-5.681C315.491,227.173,310.233,232.433,310.233,238.949z"/>
		<path d="M229.213,309.523c-6.44-0.861-12.403,3.619-13.263,10.051c-0.789,5.402,2.262,10.447,7.077,12.438
			c0.908,0.377,1.857,0.686,2.886,0.83c0.553,0.152,1.1,0.152,1.649,0.152c1.609,0,3.127-0.381,4.539-0.982
			c3.699-1.547,6.532-4.889,7.159-9.145C240.115,316.437,235.649,310.465,229.213,309.523z"/>
		<path d="M184.849,188.627c2.755,0,5.496-0.944,7.772-2.906c4.869-4.315,5.416-11.695,1.108-16.641
			c-3.032-3.477-7.701-4.711-11.902-3.572c-1.671,0.457-3.274,1.238-4.665,2.472c-1.763,1.515-2.757,3.485-3.366,5.559
			c-1.106,3.731-0.543,7.875,2.19,11.004C178.343,187.217,181.551,188.627,184.849,188.627z"/>
		<path d="M268.536,174.575c1.57,0.708,3.218,1.022,4.865,1.022c4.479,0,8.712-2.591,10.671-6.911
			c2.753-5.965,0.085-12.872-5.803-15.621c0,0.078,0,0.078,0,0.078c-5.971-2.749-12.956-0.078-15.625,5.811
			C259.988,164.919,262.577,171.83,268.536,174.575z"/>
		<path d="M176.223,294.219c-2.649,3.038-3.422,7.077-2.448,10.732c0.587,2.188,1.805,4.231,3.633,5.826c0.078,0,0.078,0,0.078,0
			c1.326,1.183,2.875,1.888,4.468,2.349c1.044,0.288,2.094,0.558,3.148,0.558c3.384,0,6.592-1.419,8.958-4.084
			c4.238-4.938,3.687-12.323-1.18-16.639C187.918,288.717,180.458,289.266,176.223,294.219z"/>
		<path d="M315.322,274.118c-5.49-3.527-12.796-1.964-16.33,3.534c-3.526,5.422-1.964,12.72,3.534,16.246
			c1.964,1.258,4.164,1.884,6.372,1.884c3.831,0,7.683-1.96,9.891-5.41C322.315,284.874,320.749,277.568,315.322,274.118z"/>
		<path d="M156.516,251.428c-6.202,1.884-9.812,8.399-7.926,14.611c1.482,5.174,6.203,8.479,11.225,8.479
			c1.1,0,2.276-0.168,3.376-0.477c6.202-1.888,9.812-8.404,7.927-14.604C169.312,253.159,162.72,249.624,156.516,251.428z"/>
		<path d="M268.772,303.873c-5.887,2.665-8.472,9.649-5.719,15.537c1.964,4.323,6.195,6.916,10.672,6.916
			c1.646,0,3.294-0.396,4.861-1.102c5.971-2.669,8.56-9.662,5.811-15.625C281.729,303.713,274.743,301.12,268.772,303.873z"/>
		<path d="M156.44,227.411c1.096,0.311,2.188,0.467,3.296,0.467c5.095,0,9.814-3.296,11.297-8.478
			c1.805-6.28-1.729-12.796-8.007-14.601c-6.204-1.805-12.796,1.805-14.601,8.007C146.628,219.086,150.239,225.602,156.44,227.411z"
			/>
		<path d="M308.738,206.056c2.2,0,4.408-0.627,6.432-1.962c5.41-3.534,6.989-10.832,3.45-16.248
			c-3.526-5.498-10.836-6.989-16.321-3.458c-5.423,3.534-6.993,10.836-3.459,16.252
			C301.124,204.094,304.879,206.056,308.738,206.056z"/>
		<path d="M216.563,212.335c1.964,0,4.09-0.471,5.977-1.567c5.572-3.298,7.448-10.523,4.15-16.174
			c-3.296-5.572-10.518-7.458-16.172-4.162c-5.572,3.3-7.456,10.521-4.158,16.172C208.564,210.295,212.49,212.335,216.563,212.335z"
			/>
		<path d="M255.5,210.454c1.803,1.02,3.851,1.491,5.814,1.491c4.084,0,8.087-2.12,10.203-5.969c3.218-5.65,1.258-12.796-4.4-16.014
			c-5.727-3.218-12.864-1.254-16.086,4.476C247.813,200.089,249.857,207.234,255.5,210.454z"/>
		<path d="M182.659,239.578c0,6.512,5.34,11.694,11.776,11.694h0.076c6.518,0,11.7-5.334,11.7-11.85
			c-0.081-6.436-5.348-11.7-11.856-11.7C187.842,227.802,182.579,233.062,182.659,239.578z"/>
		<path d="M272.314,238.873c0,0.152,0,0.234,0,0.391c0,6.522,5.258,11.78,11.774,11.78c6.516,0,11.777-5.258,11.777-11.78
			c0-0.076,0-0.156,0-0.238c0-0.152,0-0.313,0-0.391c0-0.076,0-0.076,0-0.076c-0.08-6.439-5.422-11.699-11.946-11.617
			C277.404,227.017,272.238,232.356,272.314,238.873z"/>
		<path d="M271.914,272.154c-3.294-5.654-10.439-7.534-16.098-4.316c-5.574,3.299-7.538,10.52-4.24,16.094
			c2.2,3.771,6.124,5.887,10.219,5.887c1.964,0,4.004-0.477,5.888-1.562C273.249,284.95,275.212,277.729,271.914,272.154z"/>
		<path d="M227.171,284.008c3.296-5.65,1.333-12.795-4.315-16.006c-5.663-3.298-12.884-1.334-16.104,4.309
			c-3.208,5.658-1.247,12.88,4.404,16.098c1.798,1.021,3.85,1.562,5.811,1.562C221.048,289.971,225.043,287.855,227.171,284.008z"/>
		<path d="M239.26,226.648c6.967,0,12.609,5.642,12.609,12.607c0,6.959-5.643,12.609-12.609,12.609
			c-6.965,0-12.607-5.65-12.607-12.609C226.652,232.29,232.295,226.648,239.26,226.648z"/>
	</g>
</g>
<g>
</g>
<g>
</g>
<g>
</g>
<g>
</g>
<g>
</g>
<g>
</g>
<g>
</g>
<g>
</g>
<g>
</g>
<g>
</g>
<g>
</g>
<g>
</g>
<g>
</g>
<g>
</g>
<g>
</g>
</svg>
