<svg aria-hidden="true" style="position: absolute; width: 0; height: 0; overflow: hidden;" version="1.1"
    xmlns="http://www.w3.org/2000/svg" xmlns:xlink="http://www.w3.org/1999/xlink">
    <defs>
        <symbol id="icon-male" viewBox="0 0 16 28">
            <path
                d="M16 11v6.5c0 0.828-0.672 1.5-1.5 1.5s-1.5-0.672-1.5-1.5v-5.5h-1v14.25c0 0.969-0.781 1.75-1.75 1.75s-1.75-0.781-1.75-1.75v-7.25h-1v7.25c0 0.969-0.781 1.75-1.75 1.75s-1.75-0.781-1.75-1.75v-14.25h-1v5.5c0 0.828-0.672 1.5-1.5 1.5s-1.5-0.672-1.5-1.5v-6.5c0-1.656 1.344-3 3-3h10c1.656 0 3 1.344 3 3zM11.5 4c0 1.937-1.563 3.5-3.5 3.5s-3.5-1.563-3.5-3.5 1.563-3.5 3.5-3.5 3.5 1.563 3.5 3.5z">
            </path>
        </symbol>
        <symbol id="icon-female" viewBox="0 0 20 28">
            <path
                d="M20 16.5c0 0.828-0.672 1.5-1.5 1.5-0.5 0-0.969-0.25-1.25-0.672l-3.547-5.328h-0.703v2.063l3.859 6.422c0.094 0.156 0.141 0.328 0.141 0.516 0 0.547-0.453 1-1 1h-3v4.25c0 0.969-0.781 1.75-1.75 1.75h-2.5c-0.953 0-1.75-0.781-1.75-1.75v-4.25h-3c-0.547 0-1-0.453-1-1 0-0.187 0.047-0.359 0.141-0.516l3.859-6.422v-2.063h-0.703l-3.547 5.328c-0.281 0.422-0.75 0.672-1.25 0.672-0.828 0-1.5-0.672-1.5-1.5 0-0.297 0.094-0.594 0.25-0.828l4-6c0.625-0.922 1.594-1.672 2.75-1.672h6c1.156 0 2.125 0.75 2.75 1.672l4 6c0.156 0.234 0.25 0.531 0.25 0.828zM13.5 4c0 1.937-1.563 3.5-3.5 3.5s-3.5-1.563-3.5-3.5 1.563-3.5 3.5-3.5 3.5 1.563 3.5 3.5z">
            </path>
        </symbol>
        <symbol id="icon-cogs" viewBox="0 0 32 32">
            <path
                d="M11.366 22.564l1.291-1.807-1.414-1.414-1.807 1.291c-0.335-0.187-0.694-0.337-1.071-0.444l-0.365-2.19h-2l-0.365 2.19c-0.377 0.107-0.736 0.256-1.071 0.444l-1.807-1.291-1.414 1.414 1.291 1.807c-0.187 0.335-0.337 0.694-0.443 1.071l-2.19 0.365v2l2.19 0.365c0.107 0.377 0.256 0.736 0.444 1.071l-1.291 1.807 1.414 1.414 1.807-1.291c0.335 0.187 0.694 0.337 1.071 0.444l0.365 2.19h2l0.365-2.19c0.377-0.107 0.736-0.256 1.071-0.444l1.807 1.291 1.414-1.414-1.291-1.807c0.187-0.335 0.337-0.694 0.444-1.071l2.19-0.365v-2l-2.19-0.365c-0.107-0.377-0.256-0.736-0.444-1.071zM7 27c-1.105 0-2-0.895-2-2s0.895-2 2-2 2 0.895 2 2-0.895 2-2 2zM32 12v-2l-2.106-0.383c-0.039-0.251-0.088-0.499-0.148-0.743l1.799-1.159-0.765-1.848-2.092 0.452c-0.132-0.216-0.273-0.426-0.422-0.629l1.219-1.761-1.414-1.414-1.761 1.219c-0.203-0.149-0.413-0.29-0.629-0.422l0.452-2.092-1.848-0.765-1.159 1.799c-0.244-0.059-0.492-0.109-0.743-0.148l-0.383-2.106h-2l-0.383 2.106c-0.251 0.039-0.499 0.088-0.743 0.148l-1.159-1.799-1.848 0.765 0.452 2.092c-0.216 0.132-0.426 0.273-0.629 0.422l-1.761-1.219-1.414 1.414 1.219 1.761c-0.149 0.203-0.29 0.413-0.422 0.629l-2.092-0.452-0.765 1.848 1.799 1.159c-0.059 0.244-0.109 0.492-0.148 0.743l-2.106 0.383v2l2.106 0.383c0.039 0.251 0.088 0.499 0.148 0.743l-1.799 1.159 0.765 1.848 2.092-0.452c0.132 0.216 0.273 0.426 0.422 0.629l-1.219 1.761 1.414 1.414 1.761-1.219c0.203 0.149 0.413 0.29 0.629 0.422l-0.452 2.092 1.848 0.765 1.159-1.799c0.244 0.059 0.492 0.109 0.743 0.148l0.383 2.106h2l0.383-2.106c0.251-0.039 0.499-0.088 0.743-0.148l1.159 1.799 1.848-0.765-0.452-2.092c0.216-0.132 0.426-0.273 0.629-0.422l1.761 1.219 1.414-1.414-1.219-1.761c0.149-0.203 0.29-0.413 0.422-0.629l2.092 0.452 0.765-1.848-1.799-1.159c0.059-0.244 0.109-0.492 0.148-0.743l2.106-0.383zM21 15.35c-2.402 0-4.35-1.948-4.35-4.35s1.948-4.35 4.35-4.35 4.35 1.948 4.35 4.35c0 2.402-1.948 4.35-4.35 4.35z">
            </path>
        </symbol>
        <symbol id="icon-search" viewBox="0 0 32 32">
            <path
                d="M31.008 27.231l-7.58-6.447c-0.784-0.705-1.622-1.029-2.299-0.998 1.789-2.096 2.87-4.815 2.87-7.787 0-6.627-5.373-12-12-12s-12 5.373-12 12 5.373 12 12 12c2.972 0 5.691-1.081 7.787-2.87-0.031 0.677 0.293 1.515 0.998 2.299l6.447 7.58c1.104 1.226 2.907 1.33 4.007 0.23s0.997-2.903-0.23-4.007zM12 20c-4.418 0-8-3.582-8-8s3.582-8 8-8 8 3.582 8 8-3.582 8-8 8z">
            </path>
        </symbol>
        <symbol id="icon-home2" viewBox="0 0 32 32">
            <path
                d="M16 1l-16 16 3 3 3-3v13h8v-6h4v6h8v-13l3 3 3-3-16-16zM16 14c-1.105 0-2-0.895-2-2s0.895-2 2-2c1.105 0 2 0.895 2 2s-0.895 2-2 2z">
            </path>
        </symbol>
        <symbol id="icon-phone" viewBox="0 0 32 32">
            <path
                d="M22 20c-2 2-2 4-4 4s-4-2-6-4-4-4-4-6 2-2 4-4-4-8-6-8-6 6-6 6c0 4 4.109 12.109 8 16s12 8 16 8c0 0 6-4 6-6s-6-8-8-6z">
            </path>
        </symbol>
        <symbol id="icon-cart" viewBox="0 0 20 20">
            <path
                d="M13 17c0 1.104 0.894 2 2 2 1.104 0 2-0.896 2-2 0-1.106-0.896-2-2-2-1.106 0-2 0.894-2 2zM3 17c0 1.104 0.895 2 2 2 1.103 0 2-0.896 2-2 0-1.106-0.897-2-2-2-1.105 0-2 0.894-2 2zM6.547 12.172l11.068-3.162c0.211-0.061 0.385-0.289 0.385-0.51v-5.5h-14v-1.6c0-0.22-0.181-0.4-0.399-0.4h-3.202c-0.219 0-0.399 0.18-0.399 0.4v1.6h2l1.91 8.957 0.090 0.943v1.649c0 0.219 0.18 0.4 0.4 0.4h13.2c0.22 0 0.4-0.182 0.4-0.4v-1.549h-11.248c-1.15 0-1.174-0.551-0.205-0.828z">
            </path>
        </symbol>
        <symbol id="icon-close" viewBox="0 0 32 32">
            <path
                d="M16 0c-8.837 0-16 7.163-16 16s7.163 16 16 16 16-7.163 16-16-7.163-16-16-16zM16 29c-7.18 0-13-5.82-13-13s5.82-13 13-13 13 5.82 13 13-5.82 13-13 13z">
            </path>
            <path d="M21 8l-5 5-5-5-3 3 5 5-5 5 3 3 5-5 5 5 3-3-5-5 5-5z"></path>
        </symbol>
        <symbol id="icon-article" viewBox="0 0 32 32">
            <path d="M29 3h-11.3l-14.9 14.8 11.3 11.3 14.9-14.8v-11.3zM20 12v-4h4v4h-4z"></path>
        </symbol>
        <symbol id="icon-color" viewBox="0 0 32 32">
            <path
                d="M30.828 1.172c-1.562-1.562-4.095-1.562-5.657 0l-5.379 5.379-3.793-3.793-4.243 4.243 3.326 3.326-14.754 14.754c-0.252 0.252-0.358 0.592-0.322 0.921h-0.008v5c0 0.552 0.448 1 1 1h5c0 0 0.083 0 0.125 0 0.288 0 0.576-0.11 0.795-0.329l14.754-14.754 3.326 3.326 4.243-4.243-3.793-3.793 5.379-5.379c1.562-1.562 1.562-4.095 0-5.657zM5.409 30h-3.409v-3.409l14.674-14.674 3.409 3.409-14.674 14.674z">
            </path>
        </symbol>
        <symbol id="icon-image" viewBox="0 0 32 32">
            <path
                d="M29.996 4c0.001 0.001 0.003 0.002 0.004 0.004v23.993c-0.001 0.001-0.002 0.003-0.004 0.004h-27.993c-0.001-0.001-0.003-0.002-0.004-0.004v-23.993c0.001-0.001 0.002-0.003 0.004-0.004h27.993zM30 2h-28c-1.1 0-2 0.9-2 2v24c0 1.1 0.9 2 2 2h28c1.1 0 2-0.9 2-2v-24c0-1.1-0.9-2-2-2v0z">
            </path>
            <path d="M26 9c0 1.657-1.343 3-3 3s-3-1.343-3-3 1.343-3 3-3 3 1.343 3 3z"></path>
            <path d="M28 26h-24v-4l7-12 8 10h2l7-6z"></path>
        </symbol>
        <symbol id="icon-prix" viewBox="0 0 32 32">
            <path
                d="M15 2c-8.284 0-15 6.716-15 15s6.716 15 15 15c8.284 0 15-6.716 15-15s-6.716-15-15-15zM15 29c-6.627 0-12-5.373-12-12s5.373-12 12-12c6.627 0 12 5.373 12 12s-5.373 12-12 12zM16 16v-4h4v-2h-4v-2h-2v2h-4v8h4v4h-4v2h4v2h2v-2h4l-0-8h-4zM14 16h-2v-4h2v4zM18 22h-2v-4h2v4z">
            </path>
        </symbol>
        <symbol id="icon-card" viewBox="0 0 32 32">
            <path
                d="M29 4h-26c-1.65 0-3 1.35-3 3v18c0 1.65 1.35 3 3 3h26c1.65 0 3-1.35 3-3v-18c0-1.65-1.35-3-3-3zM3 6h26c0.542 0 1 0.458 1 1v3h-28v-3c0-0.542 0.458-1 1-1zM29 26h-26c-0.542 0-1-0.458-1-1v-9h28v9c0 0.542-0.458 1-1 1zM4 20h2v4h-2zM8 20h2v4h-2zM12 20h2v4h-2z">
            </path>
        </symbol>
        <symbol id="icon-trash" viewBox="0 0 32 32">
            <path
                d="M29.98 6.819c-0.096-1.57-1.387-2.816-2.98-2.816h-3v-1.002c0-1.657-1.344-3-3-3h-10c-1.657 0-3 1.343-3 3v1.001h-3c-1.595 0-2.885 1.246-2.981 2.816h-0.019v2.183c0 1.104 0.896 2 2 2v0 17c0 2.209 1.791 4 4 4h16c2.209 0 4-1.791 4-4v-17c1.104 0 2-0.896 2-2v-2.182h-0.020zM10 3.002c0-0.553 0.447-1 1-1h10c0.553 0 1 0.447 1 1v1h-12v-1zM26 28.002c0 1.102-0.898 2-2 2h-16c-1.103 0-2-0.898-2-2v-17h20v17zM28 8.001v1h-24v-1.999c0-0.553 0.447-1 1-1h22c0.553 0 1 0.447 1 1v0.999zM9 28.006h2c0.553 0 1-0.447 1-1v-13c0-0.553-0.447-1-1-1h-2c-0.553 0-1 0.447-1 1v13c0 0.553 0.447 1 1 1zM9 14.005h2v13h-2v-13zM15 28.006h2c0.553 0 1-0.447 1-1v-13c0-0.553-0.447-1-1-1h-2c-0.553 0-1 0.447-1 1v13c0 0.553 0.447 1 1 1zM15 14.005h2v13h-2v-13zM21 28.006h2c0.553 0 1-0.447 1-1v-13c0-0.553-0.447-1-1-1h-2c-0.553 0-1 0.447-1 1v13c0 0.553 0.447 1 1 1zM21 14.005h2v13h-2v-13z">
            </path>
        </symbol>
        <symbol id="icon-locked" viewBox="0 0 32 32">
            <path
                d="M16 31c-5.247 0-9.5-4.254-9.5-9.5 0-3.41 1.802-6.391 4.5-8.067v-5.933c0-3.038 2.463-5.5 5.5-5.5s5.5 2.462 5.5 5.5v6.637c2.135 1.742 3.5 4.392 3.5 7.363 0 5.246-4.253 9.5-9.5 9.5zM20 7.5c0-1.933-1.566-3.5-3.5-3.5-1.933 0-3.5 1.567-3.5 3.5v4.991c0.944-0.314 1.95-0.491 3-0.491 1.432 0 2.783 0.325 4 0.892v-5.392zM16 13.5c-4.418 0-8 3.582-8 8s3.582 8 8 8 8-3.582 8-8-3.582-8-8-8zM16 29c-4.143 0-7.5-3.357-7.5-7.5s3.357-7.5 7.5-7.5c4.143 0 7.5 3.357 7.5 7.5s-3.357 7.5-7.5 7.5zM17.5 19.5c0-0.828-0.672-1.5-1.5-1.5s-1.5 0.672-1.5 1.5c0 0.711 0.504 1.277 1.167 1.434l-1.167 4.566h3.062l-1.314-4.551c0.705-0.121 1.252-0.709 1.252-1.449z">
            </path>
        </symbol>
        <symbol id="icon-basket" viewBox="0 0 32 32">
            <path
                d="M29 14h-26c-0.553 0-1-0.447-1-1s0.447-1 1-1h2l6-11c0-0.553 0.447-1 1-1h2c0.553 0 1 0.447 1 1l-6 11h14l-6-11c0-0.553 0.447-1 1-1h3c0.553 0 1 0.447 1 1l5 11h2c0.553 0 1 0.447 1 1s-0.447 1-1 1zM3 16h26c0.553 0 1 0.447 1 1l-2 14c0 0.553-0.447 1-1 1h-22c-0.553 0-1-0.447-1-1l-2-14c0-0.553 0.447-1 1-1zM22 28h2c0.553 0 1-0.447 1-1l1-6c0-0.553-0.447-1-1-1h-2c-0.553 0-1 0.447-1 1l-1 6c0 0.553 0.447 1 1 1zM14 27c0 0.553 0.447 1 1 1h2c0.553 0 1-0.447 1-1v-6c0-0.553-0.447-1-1-1h-2c-0.553 0-1 0.447-1 1v6zM7 27c0 0.553 0.447 1 1 1h2c0.553 0 1-0.447 1-1l-1-6c0-0.553-0.447-1-1-1h-2c-0.553 0-1 0.447-1 1l1 6z">
            </path>
        </symbol>
        <symbol id="icon-question" viewBox="0 0 24 28">
            <path
                d="M14 21.5v-3c0-0.281-0.219-0.5-0.5-0.5h-3c-0.281 0-0.5 0.219-0.5 0.5v3c0 0.281 0.219 0.5 0.5 0.5h3c0.281 0 0.5-0.219 0.5-0.5zM18 11c0-2.859-3-5-5.688-5-2.547 0-4.453 1.094-5.797 3.328-0.141 0.219-0.078 0.5 0.125 0.656l2.063 1.563c0.078 0.063 0.187 0.094 0.297 0.094 0.141 0 0.297-0.063 0.391-0.187 0.734-0.938 1.047-1.219 1.344-1.437 0.266-0.187 0.781-0.375 1.344-0.375 1 0 1.922 0.641 1.922 1.328 0 0.812-0.422 1.219-1.375 1.656-1.109 0.5-2.625 1.797-2.625 3.313v0.562c0 0.281 0.219 0.5 0.5 0.5h3c0.281 0 0.5-0.219 0.5-0.5v0c0-0.359 0.453-1.125 1.188-1.547 1.188-0.672 2.812-1.578 2.812-3.953zM24 14c0 6.625-5.375 12-12 12s-12-5.375-12-12 5.375-12 12-12 12 5.375 12 12z">
            </path>
        </symbol>
        <symbol id="icon-plus" viewBox="0 0 32 32">
            <path
                d="M31 12h-11v-11c0-0.552-0.448-1-1-1h-6c-0.552 0-1 0.448-1 1v11h-11c-0.552 0-1 0.448-1 1v6c0 0.552 0.448 1 1 1h11v11c0 0.552 0.448 1 1 1h6c0.552 0 1-0.448 1-1v-11h11c0.552 0 1-0.448 1-1v-6c0-0.552-0.448-1-1-1z">
            </path>
        </symbol>
        <symbol id="icon-minus" viewBox="0 0 32 32">
            <path
                d="M0 13v6c0 0.552 0.448 1 1 1h30c0.552 0 1-0.448 1-1v-6c0-0.552-0.448-1-1-1h-30c-0.552 0-1 0.448-1 1z">
            </path>
        </symbol>
        <symbol id="icon-facebook" viewBox="0 0 24 24">
            <path
                d="M21.984 12q0-2.063-0.773-3.867t-2.156-3.188-3.188-2.156-3.867-0.773-3.867 0.773-3.188 2.156-2.156 3.188-0.773 3.867q0 1.828 0.586 3.445t1.688 2.93 2.555 2.203 3.141 1.219v-6.797h-1.969v-3h1.969v-2.484q0-0.984 0.492-1.781t1.266-1.266 1.758-0.469h2.484v3h-1.969q-0.422 0-0.727 0.305t-0.305 0.68v2.016h3v3h-3v6.938q1.922-0.188 3.563-1.031t2.859-2.18 1.898-3.047 0.68-3.68z">
            </path>
        </symbol>
        <symbol id="icon-twitter" viewBox="0 0 20 20">
            <path
                d="M10 0.4c-5.302 0-9.6 4.298-9.6 9.6s4.298 9.6 9.6 9.6 9.6-4.298 9.6-9.6-4.298-9.6-9.6-9.6zM13.905 8.264c0.004 0.082 0.005 0.164 0.005 0.244 0 2.5-1.901 5.381-5.379 5.381-1.068 0-2.062-0.312-2.898-0.85 0.147 0.018 0.298 0.025 0.451 0.025 0.886 0 1.701-0.301 2.348-0.809-0.827-0.016-1.525-0.562-1.766-1.312 0.115 0.021 0.233 0.033 0.355 0.033 0.172 0 0.34-0.023 0.498-0.066-0.865-0.174-1.517-0.938-1.517-1.854v-0.023c0.255 0.141 0.547 0.227 0.857 0.237-0.508-0.34-0.841-0.918-0.841-1.575 0-0.346 0.093-0.672 0.256-0.951 0.933 1.144 2.325 1.896 3.897 1.977-0.033-0.139-0.049-0.283-0.049-0.432 0-1.043 0.846-1.891 1.891-1.891 0.543 0 1.035 0.23 1.38 0.598 0.431-0.086 0.835-0.242 1.2-0.459-0.141 0.441-0.44 0.812-0.831 1.047 0.383-0.047 0.747-0.148 1.086-0.299-0.253 0.379-0.574 0.713-0.943 0.979z">
            </path>
        </symbol>
    </defs>
</svg>