<?xml version="1.0" encoding="iso-8859-1"?>
<!-- Generator: Adobe Illustrator 19.0.0, SVG Export Plug-In . SVG Version: 6.00 Build 0)  -->
<svg version="1.1" id="Layer_1" xmlns="http://www.w3.org/2000/svg" xmlns:xlink="http://www.w3.org/1999/xlink" x="0px" y="0px"
	 viewBox="0 0 512.001 512.001" style="enable-background:new 0 0 512.001 512.001;" xml:space="preserve">
<path style="fill:#4FC0E8;" d="M512.001,256.006c0,141.395-114.606,255.998-255.996,255.994
	C114.606,512.004,0.001,397.402,0.001,256.006C-0.007,114.61,114.606,0,256.005,0C397.395,0,512.001,114.614,512.001,256.006z"/>
<path style="fill:#3DAED9;" d="M511.583,270.511c-0.438-0.452-176.838-176.962-177.398-177.388
	c-3.15-3.099-7.455-5.122-12.391-5.122c-8.611,0-15.961,5.964-17.114,14.014l-7.233,57.699c-4.447,5.585-9.562,10.118-14.609,12.991
	c-1.499-1.516-77.632-76.85-78.143-77.314c-2.889-3.279-6.971-5.398-9.539-6.487c-1.042-0.555-2.231-0.867-3.492-0.867
	c-10.383,0-16.391,4.565-17.851,13.504l-7.642,44.202l-19.902,51.574c-4.317,11.296-2.34,23.881,5.282,33.651
	c9.844,12.637,26.99,39.114,31.198,74.448c5.279,44.29-32.247,91.001-32.63,91.468c-1.568,1.924-2.075,4.513-1.353,6.883
	c0.468,1.543,100.703,104.092,105.322,108.21c0.64,0.004,1.277,0.025,1.918,0.025C392.526,512.004,504.062,405.155,511.583,270.511z
	"/>
<path style="fill:#F4F6F9;" d="M360.366,230.982c7.67-9.844,9.691-22.436,5.4-33.666l-19.691-51.537l-7.233-44.188
	C337.558,93.716,330.39,88,321.794,88c-8.611,0-15.962,5.965-17.114,14.015l-7.233,57.699c-4.638,5.826-10.004,10.537-15.262,13.38
	c-6.719,3.638-14.543,5.644-22.032,5.644h-6.461c-2.545,0-5.356-0.591-8.334-1.211l-1.188-0.247
	c-5.757-1.188-19.841-5.214-29.757-17.267l-6.467-57.983c-1.039-7.248-8.779-11.426-12.789-13.125
	c-1.043-0.555-2.231-0.867-3.492-0.867c-10.383,0-16.391,4.564-17.85,13.504l-7.642,44.202l-19.903,51.574
	c-4.317,11.295-2.34,23.881,5.283,33.651c9.844,12.637,26.99,39.113,31.198,74.448c5.279,44.289-32.247,91.001-32.63,91.467
	c-1.568,1.925-2.075,4.513-1.353,6.883c0.722,2.378,2.578,4.244,4.951,4.973c2.031,0.62,50.356,15.262,104.865,15.262
	c50.925,0,94.686-14.707,96.524-15.334c2.265-0.766,4.018-2.574,4.725-4.857c0.707-2.283,0.277-4.769-1.152-6.679
	c-0.35-0.467-34.844-47.25-29.546-91.714C333.336,270.139,350.504,243.641,360.366,230.982z M340.821,397.356
	c-15.324,4.229-47.366,11.711-82.239,11.711c-37.807,0-73.322-7.59-90.205-11.827c11.627-16.96,33.79-55.067,29.203-93.588
	c-4.641-38.93-23.45-67.995-34.249-81.863c-4.448-5.702-5.582-12.681-3.121-19.111l20.161-52.244c0.175-0.46,0.306-0.933,0.39-1.422
	l7.777-44.997c0.059-0.357,0.116-0.612,0.124-0.743c0.27-0.08,0.733-0.175,1.455-0.241c1.247,0.627,2.497,1.407,3.139,1.983
	l6.551,58.764c0.146,1.327,0.645,2.589,1.447,3.661c12.542,16.713,30.378,22.502,39.9,24.47l1.149,0.241
	c3.423,0.715,7.302,1.524,11.39,1.524h6.461c9.927,0,20.282-2.646,29.141-7.444c7.562-4.091,15.116-10.865,21.281-19.075
	c0.78-1.043,1.276-2.268,1.437-3.558l7.467-59.587c0.036-0.255,0.828-1.072,2.315-1.072c1.494,0,2.268,0.81,2.311,1.065
	l7.357,44.939c0.08,0.503,0.211,0.992,0.394,1.458l19.961,52.244c2.446,6.41,1.265,13.395-3.234,19.17
	c-10.814,13.876-29.648,42.97-34.282,81.842C309.697,342.297,330.244,380.601,340.821,397.356z"/>
<g>
</g>
<g>
</g>
<g>
</g>
<g>
</g>
<g>
</g>
<g>
</g>
<g>
</g>
<g>
</g>
<g>
</g>
<g>
</g>
<g>
</g>
<g>
</g>
<g>
</g>
<g>
</g>
<g>
</g>
</svg>
