<?xml version="1.0" encoding="iso-8859-1"?>
<!-- Generator: Adobe Illustrator 18.1.1, SVG Export Plug-In . SVG Version: 6.00 Build 0)  -->
<svg version="1.1" id="Capa_1" xmlns="http://www.w3.org/2000/svg" xmlns:xlink="http://www.w3.org/1999/xlink" x="0px" y="0px"
	 viewBox="0 0 52.035 52.035" style="enable-background:new 0 0 52.035 52.035;" xml:space="preserve">
<g>
	<path style="fill:#030104;" d="M44.222,39.543V15.295C44.222,6.861,37.361,0,28.927,0h-5.588C14.905,0,8.042,6.861,8.042,15.295
		V39.49c0,0.553-0.439,1.09-0.968,1.252c-1.665,0.51-4.146,1.691-4.146,4.207c0,3.992,13.568,7.086,25.276,7.086
		c10.057-0.582,20.903-3.457,20.903-7.086c0-2.404-2.27-3.59-3.925-4.137C44.66,40.641,44.222,40.096,44.222,39.543z M20.903,8.395
		c-0.746,0.99-1.543,1.965-2.36,2.906c-0.361,0.418-0.992,0.451-1.406,0.086c-0.694-0.613-1.353-1.172-1.962-1.676
		c-0.426-0.352-0.517-0.998-0.221-1.465c0.654-1.035,1.273-2.195,1.795-3.48c0.208-0.512,0.708-0.66,1.137-0.312
		c0.79,0.639,1.774,1.465,2.874,2.461C21.169,7.283,21.236,7.953,20.903,8.395z M29.56,7.449c-0.687,1.094-1.372,2.133-2.055,3.121
		c-0.313,0.455-0.869,0.484-1.242,0.078c-0.84-0.914-1.67-1.768-2.474-2.553c-0.395-0.387-0.468-1.066-0.172-1.531
		c0.729-1.152,1.363-2.311,1.858-3.449c0.22-0.508,0.696-0.619,1.089-0.231c0.788,0.775,1.767,1.779,2.854,2.971
		C29.79,6.264,29.853,6.981,29.56,7.449z M9.664,29.297c0.243-0.119,0.759,0.092,1.133,0.498c0.688,0.746,1.333,1.576,1.735,2.377
		c0.247,0.494-0.085,0.83-0.619,0.688c-0.692-0.184-1.277-0.357-1.744-0.504C9.643,32.19,9.22,31.592,9.22,31.04v-0.535
		C9.219,29.951,9.421,29.416,9.664,29.297z M9.989,22.793c0.649,0.557,1.498,1.334,2.404,2.289c0.381,0.4,0.315,0.996-0.143,1.305
		c-0.399,0.268-0.773,0.508-1.117,0.723c-0.47,0.291-1.088,0.303-1.379,0.055c-0.291-0.25-0.534-0.891-0.534-1.443v-2.566
		C9.219,22.602,9.57,22.434,9.989,22.793z M43.047,16.362v3.93c0,0.553-0.107,1.436-0.294,1.955
		c-0.032,0.09-0.066,0.182-0.102,0.272c-0.201,0.516-0.556,0.498-0.764-0.014c-0.501-1.232-1.061-2.438-1.667-3.609
		c-0.253-0.49-0.229-1.264,0.052-1.74c0.566-0.957,1.093-1.943,1.573-2.957c0.237-0.5,0.628-0.514,0.836-0.002
		c0.028,0.07,0.056,0.139,0.082,0.207C42.959,14.92,43.047,15.809,43.047,16.362z M35.888,23.317
		c0.878-1.053,1.734-2.162,2.549-3.32c0.317-0.451,0.775-0.43,1.022,0.062c0.626,1.248,1.195,2.529,1.691,3.836
		c0.196,0.516,0.112,1.324-0.195,1.783c-0.921,1.369-2.018,2.678-3.109,3.842c-0.378,0.402-0.776,0.281-0.901-0.258
		c-0.337-1.457-0.786-2.877-1.325-4.258C35.418,24.49,35.535,23.74,35.888,23.317z M38.588,15.975
		c-0.547-0.91-1.113-1.795-1.692-2.65c-0.309-0.457-0.325-1.201-0.039-1.674c0.504-0.83,0.984-1.682,1.436-2.549
		c0.255-0.49,0.735-0.549,1.078-0.115c0.572,0.723,1.121,1.461,1.614,2.185c0.31,0.457,0.379,1.252,0.155,1.758
		c-0.464,1.043-0.98,2.059-1.539,3.043C39.328,16.453,38.873,16.449,38.588,15.975z M37.812,18.84
		c-0.78,1.144-1.606,2.24-2.458,3.283c-0.35,0.428-0.828,0.361-1.076-0.131c-0.503-1.004-1.047-1.981-1.622-2.928
		c-0.287-0.473-0.24-1.191,0.107-1.621c0.783-0.967,1.544-1.975,2.274-3.014c0.317-0.453,0.821-0.457,1.127,0.004
		c0.584,0.875,1.154,1.779,1.702,2.709C38.147,17.619,38.124,18.385,37.812,18.84z M33.17,24.637
		c-0.773,0.84-1.552,1.635-2.319,2.383c-0.396,0.385-0.902,0.283-1.145-0.215c-0.476-0.975-1.008-1.932-1.584-2.867
		c-0.29-0.471-0.215-1.156,0.175-1.547c0.783-0.785,1.563-1.605,2.335-2.459c0.37-0.41,0.904-0.369,1.187,0.105
		c0.57,0.957,1.105,1.943,1.598,2.953C33.658,23.487,33.544,24.231,33.17,24.637z M28.465,29.231
		c-0.992,0.877-1.934,1.656-2.784,2.332c-0.433,0.342-0.934,0.191-1.146-0.318c-0.393-0.941-0.879-1.889-1.434-2.832
		c-0.28-0.476-0.174-1.137,0.249-1.492c0.852-0.713,1.729-1.48,2.618-2.295c0.406-0.373,0.977-0.305,1.266,0.166
		c0.572,0.936,1.098,1.891,1.561,2.861C29.033,28.151,28.879,28.863,28.465,29.231z M26.341,21.289
		c-0.698-0.959-1.432-1.887-2.184-2.779c-0.356-0.422-0.359-1.098-0.006-1.521c0.741-0.889,1.491-1.832,2.25-2.84
		c0.333-0.441,0.887-0.461,1.235-0.033c0.831,1.02,1.649,2.094,2.433,3.219c0.315,0.453,0.271,1.164-0.097,1.576
		c-0.772,0.865-1.557,1.695-2.343,2.488C27.241,21.791,26.666,21.734,26.341,21.289z M25.305,23.641
		c-0.883,0.812-1.756,1.578-2.604,2.293c-0.423,0.356-1.021,0.27-1.343-0.18c-0.582-0.809-1.198-1.605-1.833-2.381
		c-0.351-0.426-0.313-1.072,0.083-1.457c0.782-0.76,1.591-1.592,2.419-2.496c0.373-0.406,0.964-0.404,1.318,0.02
		c0.729,0.871,1.438,1.771,2.111,2.701C25.782,22.588,25.712,23.266,25.305,23.641z M15.622,25.426
		c0.523-0.412,1.069-0.861,1.635-1.35c0.418-0.361,1.041-0.322,1.391,0.105c0.621,0.756,1.223,1.533,1.789,2.32
		c0.323,0.447,0.226,1.096-0.211,1.435c-0.677,0.525-1.322,1.01-1.93,1.453c-0.446,0.324-1.021,0.188-1.303-0.287
		c-0.481-0.807-1.005-1.57-1.544-2.281C15.115,26.381,15.188,25.768,15.622,25.426z M15.675,31.221
		c-0.343,0.229-0.655,0.432-0.935,0.611c-0.465,0.299-0.991,0.109-1.253-0.377c-0.425-0.789-1.014-1.557-1.625-2.242
		c-0.367-0.412-0.297-0.951,0.172-1.244c0.316-0.197,0.654-0.416,1.01-0.654c0.459-0.309,1.109-0.223,1.443,0.217
		c0.536,0.703,1.054,1.459,1.527,2.258C16.296,30.264,16.134,30.914,15.675,31.221z M17.416,20.936
		c-0.859-0.943-1.717-1.832-2.532-2.645c-0.392-0.389-0.39-1.012,0.006-1.396c0.762-0.744,1.562-1.551,2.372-2.404
		c0.38-0.4,1.011-0.424,1.408-0.041c0.835,0.805,1.688,1.666,2.539,2.578c0.377,0.402,0.381,1.07,0.008,1.476
		c-0.825,0.9-1.631,1.729-2.41,2.484C18.411,21.373,17.788,21.344,17.416,20.936z M16.455,23.149
		c-0.563,0.486-1.105,0.935-1.625,1.346c-0.433,0.342-1.087,0.275-1.466-0.127c-0.953-1.01-1.853-1.832-2.549-2.428
		c-0.42-0.359-0.428-0.926-0.01-1.287c0.486-0.422,1.084-0.949,1.759-1.565c0.408-0.373,1.058-0.365,1.449,0.024
		c0.813,0.81,1.667,1.695,2.523,2.633C16.909,22.153,16.873,22.787,16.455,23.149z M17.404,32.652
		c0.057,0.15,0.111,0.303,0.163,0.455c0.177,0.523-0.153,0.895-0.698,0.805c-0.525-0.086-1.027-0.176-1.507-0.267
		c-0.542-0.104-0.599-0.43-0.133-0.729c0.285-0.182,0.608-0.392,0.967-0.629C16.656,31.981,17.211,32.135,17.404,32.652z
		 M18.846,33.264c-0.131-0.441-0.28-0.877-0.446-1.305c-0.2-0.514-0.023-1.178,0.423-1.502c0.642-0.467,1.327-0.979,2.046-1.537
		c0.437-0.338,1.026-0.238,1.305,0.238c0.551,0.947,1.023,1.895,1.393,2.826c0.203,0.514-0.022,1.207-0.472,1.529
		c-0.214,0.152-0.409,0.289-0.584,0.412c-0.454,0.315-1.273,0.527-1.823,0.477c-0.199-0.02-0.398-0.039-0.594-0.059
		C19.545,34.287,19.003,33.793,18.846,33.264z M24.273,34.389c0.024,0.131-0.118,0.234-0.315,0.225
		c-0.196-0.01-0.217-0.115-0.044-0.24C24.086,34.25,24.248,34.256,24.273,34.389z M25.399,34.01c-0.069-0.352,0.213-0.9,0.648-1.24
		c0.872-0.684,1.848-1.483,2.883-2.389c0.416-0.363,0.909-0.244,1.078,0.281c0.299,0.924,0.529,1.858,0.685,2.793
		c0.09,0.545-0.312,1.029-0.863,1.066c-1.14,0.076-2.249,0.117-3.322,0.127C25.954,34.654,25.468,34.361,25.399,34.01z
		 M31.866,33.344c-0.193-1.193-0.503-2.377-0.906-3.541c-0.181-0.524-0.018-1.244,0.38-1.627c0.771-0.74,1.557-1.529,2.34-2.365
		c0.378-0.402,0.851-0.32,1.043,0.197c0.516,1.381,0.935,2.801,1.233,4.25c0.111,0.541-0.14,1.293-0.547,1.666
		c-0.778,0.717-1.463,1.299-1.962,1.711c-0.426,0.352-0.929,0.643-1.113,0.664C32.149,34.32,31.954,33.889,31.866,33.344z
		 M36.383,33.19c0.02,0.277-0.304,0.566-0.721,0.639c-0.417,0.074-0.43-0.15-0.034-0.502C36.023,32.977,36.362,32.91,36.383,33.19z
		 M37.5,32.568c-0.051-0.49,0.213-1.197,0.599-1.592c1.117-1.144,2.275-2.457,3.294-3.861c0.324-0.447,0.7-0.393,0.841,0.141
		c0.402,1.529,0.685,3.078,0.813,4.637c0,0,0,0.027,0,0.062c0,0.033-0.427,0.197-0.956,0.355c-1.194,0.357-2.374,0.666-3.536,0.932
		C38.016,33.365,37.551,33.057,37.5,32.568z M42.918,24.717c0.072-0.131,0.129,0.047,0.129,0.398c0,0.354-0.055,0.457-0.128,0.236
		C42.845,25.131,42.846,24.848,42.918,24.717z M41.654,10.08c-0.537-0.766-1.123-1.531-1.724-2.277
		c-0.347-0.43-0.547-0.969-0.444-1.211c0.103-0.244,0.479-0.101,0.807,0.342c0.698,0.947,1.282,1.984,1.729,3.09
		c0.207,0.512,0.308,0.928,0.268,0.912C42.248,10.922,41.97,10.533,41.654,10.08z M37.787,5.285
		c-0.588-0.656-1.15-1.262-1.655-1.791c-0.381-0.4-0.294-0.516,0.177-0.227c0.613,0.379,1.196,0.801,1.744,1.266
		c0.421,0.358,0.664,0.859,0.57,1.088C38.528,5.85,38.155,5.697,37.787,5.285z M37.472,8.119c-0.427,0.852-0.883,1.684-1.362,2.5
		c-0.28,0.475-0.78,0.492-1.112,0.051c-0.938-1.246-1.876-2.406-2.78-3.469c-0.358-0.422-0.423-1.143-0.145-1.619
		c0.382-0.654,0.764-1.324,1.145-2.014c0.268-0.482,0.798-0.562,1.184-0.168c0.755,0.774,1.775,1.846,2.853,3.064
		C37.619,6.879,37.72,7.625,37.472,8.119z M34.323,13.406c-0.715,1.037-1.464,2.039-2.236,3.006
		c-0.345,0.432-0.88,0.404-1.197-0.047c-0.81-1.15-1.653-2.246-2.509-3.285c-0.352-0.426-0.383-1.131-0.068-1.584
		c0.683-0.988,1.37-2.025,2.059-3.117c0.294-0.467,0.821-0.51,1.176-0.088c0.896,1.07,1.823,2.234,2.746,3.479
		C34.622,12.213,34.636,12.953,34.323,13.406z M25.6,13.219c-0.762,1.014-1.518,1.965-2.262,2.857
		c-0.354,0.424-0.947,0.43-1.325,0.027c-0.847-0.902-1.696-1.758-2.526-2.555c-0.399-0.383-0.427-1.021-0.064-1.44
		c0.811-0.935,1.603-1.904,2.35-2.894c0.332-0.439,0.916-0.492,1.309-0.103c0.796,0.789,1.62,1.644,2.449,2.558
		C25.901,12.08,25.932,12.778,25.6,13.219z M16.384,13.678c-0.805,0.85-1.601,1.652-2.358,2.393
		c-0.394,0.387-1.044,0.387-1.449,0.012c-0.681-0.627-1.284-1.164-1.775-1.594c-0.416-0.361-0.411-0.934-0.002-1.305
		c0.634-0.572,1.432-1.363,2.268-2.359c0.355-0.422,0.975-0.496,1.399-0.143c0.578,0.48,1.202,1.016,1.857,1.6
		C16.737,12.647,16.764,13.278,16.384,13.678z M9.659,11.817c0.251-0.992,0.607-1.939,1.057-2.836
		c0.248-0.494,0.835-0.615,1.267-0.283c0.432,0.33,0.506,0.959,0.15,1.381c-0.707,0.842-1.382,1.529-1.939,2.051
		C9.79,12.506,9.523,12.352,9.659,11.817z M11.705,18.264c-0.667,0.609-1.254,1.131-1.727,1.541
		c-0.417,0.363-0.759,0.203-0.759-0.35v-4.16c0-0.1,0.002-0.199,0.005-0.299c0.005-0.164,0.352-0.008,0.767,0.357
		c0.472,0.412,1.057,0.936,1.719,1.549C12.115,17.278,12.113,17.891,11.705,18.264z M10.172,33.586
		c2.733,0.832,8.465,2.24,15.876,2.24c4.769,0,10.236-0.596,16.042-2.295c0.53-0.154,0.957,0.158,0.957,0.711v8.494
		c0,0.553-0.411,1.18-0.925,1.383c-4.424,1.752-9.397,2.641-14.809,2.639c-7.759,0-14.415-1.85-17.146-2.729
		c-0.525-0.17-0.947-0.768-0.947-1.32v-8.426C9.219,33.731,9.643,33.426,10.172,33.586z M32.393,2.621
		c-0.381,0.695-0.764,1.373-1.146,2.033c-0.277,0.479-0.806,0.529-1.181,0.125c-1.089-1.178-2.063-2.158-2.84-2.912
		c-0.396-0.385-0.275-0.689,0.277-0.689h1.423c1.021,0,2.014,0.109,2.973,0.318C32.44,1.611,32.659,2.137,32.393,2.621z
		 M24.835,1.24c0.038,0.035-0.068,0.492-0.274,1.004c-0.462,1.144-1.086,2.32-1.823,3.496c-0.293,0.469-0.873,0.535-1.285,0.168
		c-1.314-1.176-2.464-2.113-3.32-2.783c-0.436-0.34-0.39-0.801,0.126-1.002c1.578-0.609,3.291-0.945,5.082-0.945
		c0,0,0.318,0,0.711,0C24.444,1.178,24.796,1.205,24.835,1.24z M15.727,4.135c-0.49,1.24-1.081,2.365-1.712,3.371
		c-0.293,0.467-0.902,0.559-1.344,0.225c-0.008-0.006-0.017-0.012-0.025-0.019c-0.441-0.332-0.548-0.961-0.196-1.387
		c0.808-0.98,1.744-1.85,2.784-2.582C15.685,3.424,15.93,3.621,15.727,4.135z M4.105,44.949c0-1.617,1.652-2.512,2.977-2.969
		c0.523-0.182,0.96,0.166,0.96,0.719v0.824c0,0.553,0.084,1.033,0.188,1.074l0.188,0.072c0.084,0.031,8.532,3.266,18.893,3.266
		c6.104,0,11.677-1.102,16.562-3.277c0,0,0.078-0.035,0.175-0.076c0.096-0.043,0.174-0.525,0.174-1.078v-0.746
		c0-0.553,0.437-0.892,0.954-0.701c1.281,0.477,2.757,1.359,2.757,2.893c0,2.203-8.645,5.266-19.755,5.91
		C14.891,50.859,4.105,47.283,4.105,44.949z"/>
</g>
<g>
</g>
<g>
</g>
<g>
</g>
<g>
</g>
<g>
</g>
<g>
</g>
<g>
</g>
<g>
</g>
<g>
</g>
<g>
</g>
<g>
</g>
<g>
</g>
<g>
</g>
<g>
</g>
<g>
</g>
</svg>
